<?xml version="1.0" encoding="UTF-8"?>
<svg width="16" height="16" version="1.1" xmlns="http://www.w3.org/2000/svg">
 <svg class="bi bi-bootstrap-fill" transform="translate(-.002)" width="16" height="16" fill="#7110f5" version="1.1" viewBox="0 0 16 16">
  <path d="m6.375 7.125v-2.467h1.78c0.973 0 1.542 0.457 1.542 1.237 0 0.802-0.604 1.23-1.764 1.23zm0 3.762h1.898c1.184 0 1.81-0.48 1.81-1.377 0-0.885-0.65-1.348-1.886-1.348h-1.822z"/>
  <path d="m4.002 0a4 4 0 0 0-4 4v8a4 4 0 0 0 4 4h8a4 4 0 0 0 4-4v-8a4 4 0 0 0-4-4zm1.06 12v-8.455h3.399c1.587 0 2.543 0.809 2.543 2.11 0 0.884-0.65 1.675-1.483 1.816v0.1c1.143 0.117 1.904 0.931 1.904 2.033 0 1.488-1.084 2.396-2.888 2.396z"/>
 </svg>
</svg>
