<?xml version="1.0" encoding="UTF-8"?>
<svg width="35.999" height="31.12" version="1.1" xmlns="http://www.w3.org/2000/svg">
 <path d="m30.342 21.249a1 1 0 0 0 0.502-0.864l0.018-5.787a1 1 0 0 1 0.502-0.864l3.137-1.802a1 1 0 0 1 1.498 0.867v10.521a1 1 0 0 1-0.502 0.867l-11.839 6.8a1 1 0 0 1-0.994 1e-3l-9.291-5.314a1 1 0 0 1-0.504-0.868v-5.305c0-6e-3 7e-3 -0.01 0.013-7e-3 5e-3 3e-3 0.012 0 0.012-7e-3v-6e-3c0-4e-3 2e-3 -8e-3 6e-3 -0.01l7.652-4.396c7e-3 -4e-3 4e-3 -0.015-4e-3 -0.015a8e-3 8e-3 0 0 1-8e-3 -8e-3l0.015-5.201a1 1 0 0 0-1.5-0.87l-5.687 3.277a1 1 0 0 1-0.998 0l-5.705-3.285a1 1 0 0 0-1.499 0.866v9.4a1 1 0 0 1-1.496 0.869l-3.166-1.81a1 1 0 0 1-0.504-0.87l0.028-16.43a1 1 0 0 1 1.498-0.865l10.845 6.229a1 1 0 0 0 0.996 0l10.842-6.229a1 1 0 0 1 1.498 0.868v16.434a1 1 0 0 1-0.501 0.867l-5.678 3.27a1 1 0 0 0 4e-3 1.735l3.132 1.783a1 1 0 0 0 0.993-2e-3zm0.657-14.742a1 1 0 0 0 1.514 0.857l3-1.8a1 1 0 0 0 0.486-0.857v-3.668a1 1 0 0 0-1.514-0.856l-3 1.8a1 1 0 0 0-0.486 0.857v3.668z" clip-rule="evenodd" fill="#007fff" fill-rule="evenodd"/>
</svg>
