<?xml version="1.0" encoding="UTF-8"?>
<svg width="24.091" height="25.471" version="1.1" xmlns="http://www.w3.org/2000/svg">
 <g transform="translate(-.044 -.386)" fill="none">
  <path d="m22.915 10.723c0.67145-8e-6 1.2167 0.54256 1.22 1.214v12.705c0 0.669-0.541 1.215-1.214 1.215h-21.662c-0.67103 0-1.215-0.54397-1.215-1.215v-23.041c0-0.668 0.541-1.214 1.216-1.214h2.633c0.668 0 1.214 0.54 1.214 1.214v7.979c0.036871 0.58664 0.48335 1.0654 1.066 1.143h1.97c0.597-0.055 1.094-0.541 1.127-1.143v-7.98c0-0.668 0.54-1.214 1.214-1.214h2.633c0.668 0 1.215 0.54 1.215 1.214v7.896c0 0.624 0.458 1.154 1.06 1.226h7.524zm-3.467 8.713v-2.486c0-0.668-0.54-1.215-1.214-1.215h-2.634c-0.668 0-1.215 0.541-1.215 1.215v2.485c0 0.668 0.541 1.214 1.215 1.214h2.633c0.668 0 1.214-0.54 1.214-1.214z" fill="#f60"/>
 </g>
</svg>
